<svg width="502" height="940" viewBox="0 0 502 940" fill="none" xmlns="http://www.w3.org/2000/svg">
<path fill-rule="evenodd" clip-rule="evenodd" d="M222.627 148.651C247.254 143.233 276.143 139.812 309.973 138.868C309.973 138.868 294.635 95.3136 373.881 87.3924C452.091 79.5788 506.736 79.4395 509.932 29.9584V28L510.005 28.9792L510.068 28V29.9584C513.269 79.4395 567.914 79.5788 646.119 87.3924C725.365 95.3136 710.027 138.868 710.027 138.868C993.773 146.789 929.869 328.931 919.642 402.187C909.419 475.44 1004 503.156 1004 503.156C937.539 511.077 983.55 635.804 942.65 740.733C901.75 845.666 791.831 851.605 648.677 855.566C524.913 858.985 511.449 920.117 510.068 936.612V939C510.059 938.582 509.946 938.582 509.932 939V936.612C508.551 920.117 495.091 858.985 371.328 855.566C228.173 851.605 118.25 845.666 77.3499 740.733C36.45 635.804 82.4658 511.077 16 503.156C16 503.156 110.585 475.44 100.358 402.187C91.3499 337.665 40.7025 188.674 222.627 148.651Z" stroke="#303DFF" stroke-width="2"/>
<path d="M85.3578 375.187C75.1305 301.931 11.2272 119.789 294.973 111.868C294.973 111.868 279.635 68.3136 358.881 60.3924C437.091 52.5788 491.736 52.4395 494.932 2.95839V1L495.005 1.97919L495.068 1V2.95839C498.269 52.4395 552.914 52.5788 631.119 60.3924C710.365 68.3136 695.027 111.868 695.027 111.868C978.773 119.789 914.869 301.931 904.642 375.187C894.419 448.44 989 476.156 989 476.156C922.539 484.077 968.55 608.804 927.65 713.733C886.75 818.666 776.831 824.605 633.677 828.566C509.913 831.985 496.449 893.117 495.068 909.612V912C495.059 911.582 494.946 911.582 494.932 912V909.612C493.551 893.117 480.091 831.985 356.328 828.566C213.173 824.605 103.25 818.666 62.3499 713.733C21.45 608.804 67.4658 484.077 1 476.156C1 476.156 95.585 448.44 85.3578 375.187" stroke="#F60B8A" stroke-width="2"/>
</svg>
