<svg width="739" height="1178" viewBox="0 0 739 1178" fill="none" xmlns="http://www.w3.org/2000/svg">
<path fill-rule="evenodd" clip-rule="evenodd" d="M116.13 961.659C98.6145 953.312 79.9132 941.399 59.9375 925.234C59.9375 925.234 41.3429 964.373 -9.0379 930.635C-58.7572 897.336 -90.1512 870.222 -123.091 904.417L-124.322 905.833L-123.748 905.089L-124.4 905.766L-123.169 904.349C-93.894 866.969 -125.113 839.654 -165.005 795.055C-205.426 749.86 -169.256 725.999 -169.256 725.999C-326.836 578.959 -175.714 479.054 -123.799 431.166C-71.889 383.279 -108.65 316.131 -108.65 316.131C-65.5939 343.501 -13.5386 230.38 75.8613 174.861C165.264 119.34 231.971 169.787 316.475 238.216C389.53 297.38 435.677 259.873 446.838 248.631L448.34 246.904C448.082 247.211 448.147 247.267 448.417 246.972L446.916 248.699C437.337 261.316 406.615 312.232 475.37 376.342C554.894 450.5 614.137 509.539 571.598 605.799C529.062 702.055 424.283 769.345 457.382 808.175C457.382 808.175 385.769 781.115 345.575 839.187C310.171 890.337 245.518 1023.31 116.13 961.659Z" stroke="#303DFF" stroke-width="2"/>
<path d="M336.575 864.187C296.378 922.261 218.478 1085.82 50.9376 950.234C50.9376 950.234 32.343 989.373 -18.0378 955.635C-67.7571 922.336 -99.1512 895.222 -132.091 929.417L-133.322 930.833L-132.748 930.089L-133.4 930.766L-132.169 929.349C-102.894 891.969 -134.113 864.654 -174.005 820.055C-214.426 774.86 -178.256 750.999 -178.256 750.999C-335.836 603.959 -184.714 504.054 -132.799 456.166C-80.8889 408.279 -117.65 341.131 -117.65 341.131C-74.5939 368.501 -22.5386 255.38 66.8614 199.861C156.264 144.34 222.971 194.787 307.475 263.216C380.53 322.38 426.677 284.873 437.838 273.631L439.34 271.904C439.082 272.211 439.147 272.267 439.418 271.972L437.916 273.699C428.337 286.316 397.615 337.232 466.37 401.342C545.894 475.5 605.137 534.539 562.598 630.799C520.062 727.055 415.283 794.345 448.382 833.175C448.382 833.175 376.769 806.115 336.575 864.187" stroke="#F60B8A" stroke-width="2"/>
</svg>
