<svg width="42" height="28" viewBox="0 0 42 28" fill="none" xmlns="http://www.w3.org/2000/svg">
<path d="M41.44 19.16C41.44 14.44 37.2 10.68 32.16 10.68C28.16 10.68 26.4 12.6 25.76 12.6C25.52 12.6 25.52 12.28 25.52 11.72C25.52 6.68 30.32 1.31999 37.92 1.31999V0.439997C27.76 0.439997 22.24 9.16 22.24 16.68C22.24 22.52 25.52 27.64 32.32 27.64C37.04 27.64 41.44 24.2 41.44 19.16ZM20.08 19.16C20.08 14.44 15.44 10.68 10.8 10.68C6.8 10.68 5.04 12.6 4.4 12.6C4.16 12.6 4.16 12.28 4.16 11.72C4.16 6.68 8.96 1.31999 16.56 1.31999V0.439997C6.4 0.439997 0.88 9.16 0.88 16.68C0.88 22.52 4.16 27.64 10.96 27.64C15.68 27.64 20.08 24.2 20.08 19.16Z" fill="#DADBEC"/>
</svg>
