<svg width="319" height="151" viewBox="0 0 319 151" fill="none" xmlns="http://www.w3.org/2000/svg">
<path d="M317.521 75.4346C315.674 76.1961 313.702 78.1014 312.436 79.986C309.655 84.1269 308.233 89.0936 305.308 93.2032C294.796 107.975 276.04 109.036 261.604 107.528C261.752 107.543 259.584 111.913 259.232 112.396C258.059 114.007 256.66 115.237 255.098 116.142C251.895 117.998 248.24 118.335 244.772 118.343C236.905 118.361 229.091 117.126 221.254 116.436C204.941 114.998 188.655 111.919 172.317 112.763C167.365 113.019 161.623 114.275 159.26 119.869C156.898 114.275 151.155 113.019 146.204 112.763C129.866 111.919 113.58 114.998 97.2665 116.436C89.4293 117.126 81.6152 118.361 73.7484 118.343C70.2807 118.335 66.6255 117.998 63.4225 116.142C61.8601 115.237 60.4613 114.007 59.289 112.396C58.937 111.913 56.7688 107.543 56.9165 107.528C42.4806 109.036 23.7241 107.975 13.2124 93.2032C10.2879 89.0936 8.86535 84.1269 6.08435 79.986C4.8186 78.1014 2.84701 76.1961 1 75.4346C2.84702 74.6732 4.81862 72.7678 6.08435 70.8832C8.86535 66.7424 10.2879 61.7757 13.2124 57.666C23.7241 42.8945 42.4806 41.8334 56.9165 43.3413C56.7688 43.3259 58.9369 38.9564 59.2889 38.4728C60.4613 36.8618 61.8601 35.6318 63.4224 34.7268C66.6255 32.8717 70.2807 32.5347 73.7484 32.5267C81.6152 32.5085 89.4293 33.7428 97.2665 34.4334C113.58 35.8707 129.866 38.9507 146.204 38.1059C151.155 37.8499 156.898 36.5942 159.26 31C161.622 36.5942 167.365 37.8499 172.317 38.1059C188.655 38.9507 204.941 35.8707 221.254 34.4334C229.091 33.7428 236.905 32.5085 244.772 32.5267C248.24 32.5347 251.895 32.8716 255.098 34.7268C256.66 35.6318 258.059 36.8618 259.232 38.4728C259.584 38.9564 261.752 43.3259 261.604 43.3413C276.04 41.8334 294.796 42.8945 305.308 57.666C308.233 61.7757 309.655 66.7424 312.436 70.8832C313.702 72.7679 315.674 74.6732 317.521 75.4346Z" stroke="#316CF4" stroke-miterlimit="10" stroke-linejoin="round"/>
<path d="M202.183 120.231C204.769 120.838 206.502 123.809 205.731 126.317C204.814 129.302 201.078 130.706 197.975 130.097C195.117 129.536 192.011 127.619 189.489 126.188C186.795 124.66 184.139 123.014 181.254 121.849C177.627 120.384 172.757 119.093 169.093 121.159C166.046 122.877 163.533 127.808 166.266 130.784C167.485 132.112 169.468 132.66 171.245 132.284" stroke="#316CF4" stroke-miterlimit="10" stroke-linecap="round" stroke-linejoin="round"/>
<path d="M114.817 120.231C112.231 120.838 110.498 123.809 111.269 126.317C112.186 129.302 115.922 130.706 119.025 130.097C121.883 129.536 124.989 127.619 127.511 126.188C130.205 124.66 132.861 123.014 135.746 121.849C139.373 120.384 144.243 119.093 147.907 121.159C150.954 122.877 153.467 127.808 150.734 130.784C149.515 132.112 147.532 132.66 145.755 132.284" stroke="#316CF4" stroke-miterlimit="10" stroke-linecap="round" stroke-linejoin="round"/>
<path d="M144.782 128.601C144.571 127.382 143.593 126.332 142.433 125.912C139.79 124.955 136.652 126.517 135.022 128.586C133.398 130.648 132.981 133.391 133.547 135.902C135.954 146.59 151.878 144.626 155.555 135.793C156.062 134.575 156.106 132.578 154.413 132.482C152.976 132.401 152.182 133.75 151.868 134.934C150.656 139.516 152.509 144.577 156.114 147.629C157.025 148.401 157.78 148.991 158.5 149.917C159.22 148.991 159.975 148.401 160.886 147.629C164.491 144.577 166.344 139.516 165.132 134.934C164.818 133.75 164.024 132.401 162.587 132.482C160.894 132.578 160.938 134.575 161.445 135.793C165.122 144.626 181.046 146.59 183.453 135.902C184.019 133.391 183.602 130.648 181.978 128.586C180.348 126.517 177.21 124.955 174.567 125.912C173.407 126.332 172.429 127.382 172.218 128.601" stroke="#316CF4" stroke-miterlimit="10" stroke-linecap="round" stroke-linejoin="round"/>
<path d="M114.817 30.7687C112.231 30.1621 110.498 27.1912 111.269 24.6828C112.186 21.6977 115.922 20.294 119.025 20.903C121.883 21.4638 124.989 23.3812 127.511 24.8117C130.205 26.3398 132.861 27.986 135.746 29.1509C139.373 30.6156 144.243 31.9069 147.907 29.8412C150.954 28.1235 153.467 23.1921 150.734 20.2159C149.515 18.8877 147.532 18.3405 145.755 18.7159" stroke="#316CF4" stroke-miterlimit="10" stroke-linecap="round" stroke-linejoin="round"/>
<path d="M202.183 30.7687C204.769 30.1621 206.502 27.1912 205.731 24.6828C204.814 21.6977 201.078 20.294 197.975 20.903C195.117 21.4638 192.011 23.3812 189.489 24.8117C186.795 26.3398 184.139 27.986 181.254 29.1509C177.627 30.6156 172.757 31.9069 169.093 29.8412C166.046 28.1235 163.533 23.1921 166.266 20.2159C167.485 18.8877 169.468 18.3405 171.245 18.7159" stroke="#316CF4" stroke-miterlimit="10" stroke-linecap="round" stroke-linejoin="round"/>
<path d="M172.218 22.3995C172.429 23.6178 173.407 24.6682 174.567 25.088C177.21 26.0449 180.348 24.4829 181.978 22.4138C183.602 20.3521 184.019 17.6093 183.453 15.0976C181.046 4.40993 165.122 6.37424 161.445 15.2072C160.938 16.4249 160.894 18.4221 162.587 18.518C164.024 18.5993 164.818 17.2502 165.132 16.0658C166.344 11.484 164.491 6.42261 160.886 3.37124C159.975 2.59948 159.22 2.00918 158.5 1.08325C157.78 2.00918 157.025 2.59948 156.114 3.37124C152.509 6.42261 150.656 11.484 151.868 16.0658C152.182 17.2502 152.976 18.5993 154.413 18.518C156.106 18.4221 156.062 16.4249 155.555 15.2072C151.878 6.37424 135.954 4.40993 133.547 15.0976C132.981 17.6093 133.398 20.3521 135.022 22.4138C136.652 24.4829 139.79 26.0449 142.433 25.088C143.593 24.6682 144.571 23.6178 144.782 22.3995" stroke="#316CF4" stroke-miterlimit="10" stroke-linecap="round" stroke-linejoin="round"/>
</svg>
