<svg width="400" height="600" viewBox="0 0 400 600" fill="none" xmlns="http://www.w3.org/2000/svg">
<path d="M1 220.631C4.44928 225.387 6.58689 230.749 7.60844 236.339C12.9961 265.82 3.01948 295.703 1.52738 325.123C0.869705 338.091 1.68367 351.357 6.48442 363.702C10.7988 374.796 18.0375 385.401 27.8449 393.241C36.7809 400.384 49.2112 408.409 61.835 406.877C60.6406 410.049 61.2362 413.63 62.9433 416.606C69.4295 427.915 84.2867 430.567 97.1977 430.812C107.808 431.013 123.82 428.278 129.187 439.262C134.554 428.278 150.566 431.013 161.176 430.812C174.087 430.567 188.944 427.915 195.431 416.606C197.138 413.63 197.733 410.049 196.539 406.877C209.163 408.409 221.593 400.384 230.529 393.241C240.336 385.401 247.575 374.796 251.889 363.702C256.69 351.357 257.504 338.091 256.847 325.123C255.354 295.703 245.378 265.82 250.765 236.339C251.787 230.749 253.925 225.387 257.374 220.631C253.925 215.875 251.787 210.513 250.765 204.923C245.378 175.441 255.354 145.559 256.847 116.139C257.504 103.171 256.69 89.9048 251.889 77.5599C247.575 66.4656 240.336 55.8608 230.529 48.0211C221.593 40.878 209.163 32.8529 196.539 34.3849C197.733 31.2124 197.138 27.632 195.431 24.6555C188.944 13.3469 174.087 10.6946 161.176 10.45C150.566 10.249 134.554 12.9834 129.187 2C123.82 12.9834 107.808 10.249 97.1977 10.45C84.2867 10.6946 69.4295 13.3469 62.9433 24.6555C61.2362 27.632 60.6406 31.2124 61.835 34.3849C49.2112 32.8529 36.7809 40.878 27.8449 48.0211C18.0375 55.8608 10.7988 66.4656 6.48442 77.5599C1.68367 89.9048 0.869705 103.171 1.52739 116.138C3.01949 145.559 12.9961 175.441 7.60844 204.923C6.5869 210.513 4.44928 215.875 1 220.631Z" stroke="#316CF4" stroke-miterlimit="10"/>
</svg>
